<mxfile host="app.diagrams.net" agent="Mozilla/5.0 (Windows NT 10.0; Win64; x64) AppleWebKit/537.36 (KHTML, like Gecko) Chrome/138.0.0.0 Safari/537.36" version="28.0.6">
  <diagram name="Страница — 1" id="tIC_WZ9eXxZFpHUOUbRm">
    <mxGraphModel dx="1042" dy="535" grid="1" gridSize="10" guides="1" tooltips="1" connect="1" arrows="1" fold="1" page="1" pageScale="1" pageWidth="827" pageHeight="1169" math="0" shadow="0">
      <root>
        <mxCell id="0" />
        <mxCell id="1" parent="0" />
        <mxCell id="f4q_rLJfOCP1jWnkGfgz-3" style="edgeStyle=orthogonalEdgeStyle;rounded=0;orthogonalLoop=1;jettySize=auto;html=1;entryX=1;entryY=0.75;entryDx=0;entryDy=0;" parent="1" source="f4q_rLJfOCP1jWnkGfgz-1" target="f4q_rLJfOCP1jWnkGfgz-2" edge="1">
          <mxGeometry relative="1" as="geometry" />
        </mxCell>
        <mxCell id="h_-lFZCpEvTqEN1pMqpe-6" style="edgeStyle=orthogonalEdgeStyle;rounded=0;orthogonalLoop=1;jettySize=auto;html=1;" parent="1" source="f4q_rLJfOCP1jWnkGfgz-1" target="h_-lFZCpEvTqEN1pMqpe-4" edge="1">
          <mxGeometry relative="1" as="geometry" />
        </mxCell>
        <mxCell id="h_-lFZCpEvTqEN1pMqpe-9" style="edgeStyle=orthogonalEdgeStyle;rounded=0;orthogonalLoop=1;jettySize=auto;html=1;entryX=0;entryY=0.5;entryDx=0;entryDy=0;" parent="1" source="f4q_rLJfOCP1jWnkGfgz-1" target="h_-lFZCpEvTqEN1pMqpe-8" edge="1">
          <mxGeometry relative="1" as="geometry" />
        </mxCell>
        <mxCell id="h_-lFZCpEvTqEN1pMqpe-11" style="edgeStyle=orthogonalEdgeStyle;rounded=0;orthogonalLoop=1;jettySize=auto;html=1;entryX=1;entryY=0.5;entryDx=0;entryDy=0;" parent="1" source="f4q_rLJfOCP1jWnkGfgz-1" target="h_-lFZCpEvTqEN1pMqpe-10" edge="1">
          <mxGeometry relative="1" as="geometry" />
        </mxCell>
        <mxCell id="f4q_rLJfOCP1jWnkGfgz-1" value="pvz" style="rounded=0;whiteSpace=wrap;html=1;fillColor=#fff2cc;strokeColor=#d6b656;" parent="1" vertex="1">
          <mxGeometry x="350" y="250" width="120" height="60" as="geometry" />
        </mxCell>
        <mxCell id="f4q_rLJfOCP1jWnkGfgz-5" style="edgeStyle=orthogonalEdgeStyle;rounded=0;orthogonalLoop=1;jettySize=auto;html=1;entryX=0.5;entryY=0;entryDx=0;entryDy=0;" parent="1" source="f4q_rLJfOCP1jWnkGfgz-2" target="f4q_rLJfOCP1jWnkGfgz-4" edge="1">
          <mxGeometry relative="1" as="geometry" />
        </mxCell>
        <mxCell id="f4q_rLJfOCP1jWnkGfgz-2" value="дизайн фона" style="rounded=0;whiteSpace=wrap;html=1;fillColor=#f8cecc;strokeColor=#b85450;" parent="1" vertex="1">
          <mxGeometry x="180" y="330" width="120" height="60" as="geometry" />
        </mxCell>
        <mxCell id="f4q_rLJfOCP1jWnkGfgz-9" style="edgeStyle=orthogonalEdgeStyle;rounded=0;orthogonalLoop=1;jettySize=auto;html=1;entryX=1;entryY=0.5;entryDx=0;entryDy=0;" parent="1" source="f4q_rLJfOCP1jWnkGfgz-4" target="f4q_rLJfOCP1jWnkGfgz-6" edge="1">
          <mxGeometry relative="1" as="geometry" />
        </mxCell>
        <mxCell id="h_-lFZCpEvTqEN1pMqpe-13" style="edgeStyle=orthogonalEdgeStyle;rounded=0;orthogonalLoop=1;jettySize=auto;html=1;" parent="1" source="f4q_rLJfOCP1jWnkGfgz-4" target="h_-lFZCpEvTqEN1pMqpe-12" edge="1">
          <mxGeometry relative="1" as="geometry" />
        </mxCell>
        <mxCell id="f4q_rLJfOCP1jWnkGfgz-4" value="дизайн персонажей" style="rounded=0;whiteSpace=wrap;html=1;fillColor=#f8cecc;strokeColor=#b85450;" parent="1" vertex="1">
          <mxGeometry x="180" y="420" width="120" height="60" as="geometry" />
        </mxCell>
        <mxCell id="f4q_rLJfOCP1jWnkGfgz-6" value="дизайн оставшихся вещей" style="rounded=0;whiteSpace=wrap;html=1;fillColor=#f8cecc;strokeColor=#b85450;" parent="1" vertex="1">
          <mxGeometry x="10" y="420" width="120" height="60" as="geometry" />
        </mxCell>
        <mxCell id="h_-lFZCpEvTqEN1pMqpe-3" style="edgeStyle=orthogonalEdgeStyle;rounded=0;orthogonalLoop=1;jettySize=auto;html=1;entryX=0.5;entryY=0;entryDx=0;entryDy=0;" parent="1" source="f4q_rLJfOCP1jWnkGfgz-10" target="h_-lFZCpEvTqEN1pMqpe-1" edge="1">
          <mxGeometry relative="1" as="geometry" />
        </mxCell>
        <mxCell id="f4q_rLJfOCP1jWnkGfgz-10" value="программирование класса родителя" style="rounded=0;whiteSpace=wrap;html=1;fillColor=#f5f5f5;fontColor=#333333;strokeColor=#666666;" parent="1" vertex="1">
          <mxGeometry x="400" y="350" width="120" height="60" as="geometry" />
        </mxCell>
        <mxCell id="h_-lFZCpEvTqEN1pMqpe-14" style="edgeStyle=orthogonalEdgeStyle;rounded=0;orthogonalLoop=1;jettySize=auto;html=1;entryX=1;entryY=0.5;entryDx=0;entryDy=0;" parent="1" source="h_-lFZCpEvTqEN1pMqpe-1" target="h_-lFZCpEvTqEN1pMqpe-12" edge="1">
          <mxGeometry relative="1" as="geometry" />
        </mxCell>
        <mxCell id="h_-lFZCpEvTqEN1pMqpe-1" value="программирование классов растений и зомби" style="rounded=0;whiteSpace=wrap;html=1;fillColor=#f5f5f5;fontColor=#333333;strokeColor=#666666;" parent="1" vertex="1">
          <mxGeometry x="400" y="460" width="120" height="60" as="geometry" />
        </mxCell>
        <mxCell id="h_-lFZCpEvTqEN1pMqpe-2" style="edgeStyle=orthogonalEdgeStyle;rounded=0;orthogonalLoop=1;jettySize=auto;html=1;entryX=0.443;entryY=-0.013;entryDx=0;entryDy=0;entryPerimeter=0;" parent="1" source="f4q_rLJfOCP1jWnkGfgz-1" target="f4q_rLJfOCP1jWnkGfgz-10" edge="1">
          <mxGeometry relative="1" as="geometry" />
        </mxCell>
        <mxCell id="h_-lFZCpEvTqEN1pMqpe-7" style="edgeStyle=orthogonalEdgeStyle;rounded=0;orthogonalLoop=1;jettySize=auto;html=1;entryX=1;entryY=0.5;entryDx=0;entryDy=0;" parent="1" source="h_-lFZCpEvTqEN1pMqpe-4" target="h_-lFZCpEvTqEN1pMqpe-5" edge="1">
          <mxGeometry relative="1" as="geometry" />
        </mxCell>
        <mxCell id="h_-lFZCpEvTqEN1pMqpe-4" value="условие победы" style="rounded=0;whiteSpace=wrap;html=1;fillColor=#008a00;fontColor=#ffffff;strokeColor=#005700;" parent="1" vertex="1">
          <mxGeometry x="354" y="150" width="120" height="60" as="geometry" />
        </mxCell>
        <mxCell id="h_-lFZCpEvTqEN1pMqpe-5" value="условие поражения" style="rounded=0;whiteSpace=wrap;html=1;fillColor=#008a00;fontColor=#ffffff;strokeColor=#005700;" parent="1" vertex="1">
          <mxGeometry x="190" y="140" width="120" height="60" as="geometry" />
        </mxCell>
        <mxCell id="h_-lFZCpEvTqEN1pMqpe-8" value="прочие атрибуты геймплэя&amp;nbsp;&amp;nbsp;" style="rounded=0;whiteSpace=wrap;html=1;fillColor=#0050ef;fontColor=#ffffff;strokeColor=#001DBC;" parent="1" vertex="1">
          <mxGeometry x="530" y="250" width="120" height="60" as="geometry" />
        </mxCell>
        <mxCell id="h_-lFZCpEvTqEN1pMqpe-10" value="музыка и звуки" style="rounded=0;whiteSpace=wrap;html=1;fillColor=#76608a;fontColor=#ffffff;strokeColor=#432D57;" parent="1" vertex="1">
          <mxGeometry x="150" y="220" width="120" height="80" as="geometry" />
        </mxCell>
        <mxCell id="h_-lFZCpEvTqEN1pMqpe-12" value="анимация персонажей" style="rounded=0;whiteSpace=wrap;html=1;fillColor=#f5f5f5;fontColor=#333333;strokeColor=#666666;" parent="1" vertex="1">
          <mxGeometry x="180" y="510" width="120" height="60" as="geometry" />
        </mxCell>
        <mxCell id="h_-lFZCpEvTqEN1pMqpe-15" value="" style="endArrow=none;html=1;rounded=0;" parent="1" edge="1">
          <mxGeometry width="50" height="50" relative="1" as="geometry">
            <mxPoint x="590" y="1091.6" as="sourcePoint" />
            <mxPoint x="590" y="620.0000244140625" as="targetPoint" />
          </mxGeometry>
        </mxCell>
        <mxCell id="h_-lFZCpEvTqEN1pMqpe-17" value="" style="endArrow=none;html=1;rounded=0;" parent="1" edge="1">
          <mxGeometry width="50" height="50" relative="1" as="geometry">
            <mxPoint x="239.5" y="1101.5999755859375" as="sourcePoint" />
            <mxPoint x="239.5" y="630" as="targetPoint" />
          </mxGeometry>
        </mxCell>
        <mxCell id="h_-lFZCpEvTqEN1pMqpe-18" value="программирование класса родителя" style="rounded=0;whiteSpace=wrap;html=1;fillColor=#f5f5f5;fontColor=#333333;strokeColor=#666666;" parent="1" vertex="1">
          <mxGeometry x="660" y="750" width="120" height="60" as="geometry" />
        </mxCell>
        <mxCell id="h_-lFZCpEvTqEN1pMqpe-19" value="программирование классов растений и зомби" style="rounded=0;whiteSpace=wrap;html=1;fillColor=#f5f5f5;fontColor=#333333;strokeColor=#666666;" parent="1" vertex="1">
          <mxGeometry x="350" y="700" width="120" height="60" as="geometry" />
        </mxCell>
        <mxCell id="h_-lFZCpEvTqEN1pMqpe-20" value="каркас для игры" style="rounded=0;whiteSpace=wrap;html=1;" parent="1" vertex="1">
          <mxGeometry x="660" y="840" width="120" height="60" as="geometry" />
        </mxCell>
        <mxCell id="h_-lFZCpEvTqEN1pMqpe-21" value="to do" style="text;html=1;align=center;verticalAlign=middle;whiteSpace=wrap;rounded=0;" parent="1" vertex="1">
          <mxGeometry x="80" y="600" width="60" height="30" as="geometry" />
        </mxCell>
        <mxCell id="h_-lFZCpEvTqEN1pMqpe-23" value="in progress" style="text;html=1;align=center;verticalAlign=middle;whiteSpace=wrap;rounded=0;" parent="1" vertex="1">
          <mxGeometry x="380" y="590" width="60" height="30" as="geometry" />
        </mxCell>
        <mxCell id="h_-lFZCpEvTqEN1pMqpe-24" value="done" style="text;html=1;align=center;verticalAlign=middle;whiteSpace=wrap;rounded=0;" parent="1" vertex="1">
          <mxGeometry x="700" y="590" width="60" height="30" as="geometry" />
        </mxCell>
        <mxCell id="h_-lFZCpEvTqEN1pMqpe-25" value="репрезиторий для git hub" style="rounded=0;whiteSpace=wrap;html=1;" parent="1" vertex="1">
          <mxGeometry x="660" y="650" width="120" height="60" as="geometry" />
        </mxCell>
        <mxCell id="_D48tTqGxJVYKfi6PD5n-1" value="продумывание условий победы и поражения" style="rounded=0;whiteSpace=wrap;html=1;" parent="1" vertex="1">
          <mxGeometry x="60" y="680" width="120" height="60" as="geometry" />
        </mxCell>
        <mxCell id="_D48tTqGxJVYKfi6PD5n-2" value="программирование класса снарядов" style="rounded=0;whiteSpace=wrap;html=1;" parent="1" vertex="1">
          <mxGeometry x="350" y="800" width="120" height="60" as="geometry" />
        </mxCell>
      </root>
    </mxGraphModel>
  </diagram>
</mxfile>
